<?xml version="1.0" encoding="UTF-8"?>
<svg enable-background="new 0 0 1190.5 841.9" version="1.1" viewBox="0 0 1190.5 841.9" xml:space="preserve" xmlns="http://www.w3.org/2000/svg">
	<style type="text/css">
		.st0 {
			fill: #F37936;
		}

		.st1 {
			fill: #1E4384;
		}

		.st2 {
			fill: #EB2227;
		}

		.st3 {
			fill: #FECD85;
		}

	</style>
	<path class="st0" d="m253.2 594.3v-13.6h53.7v13.6h-19.7v59.9h-14.4v-59.9h-19.6z" />
	<path class="st0" d="m365.8 580.7 24.5 73.5h-15l-4.9-16.4h-24.5l-5.2 16.4h-14.5l24.8-73.5h14.8zm0.8 45.1-8.3-27h-0.2l-8.5 27h17z" />
	<path class="st0" d="m433 580.7v30.5l25.6-30.5h18l-25.7 29 28.1 44.5h-18l-19.7-33-8.3 9.4v23.7h-14.4v-73.5h14.4z" />
	<path class="st0" d="m543.2 580.7 24.5 73.5h-15l-5-16.4h-24.5l-5.1 16.4h-14.5l24.8-73.5h14.8zm0.8 45.1-8.3-27h-0.2l-8.5 27h17z" />
	<path class="st0" d="m643.8 580.7v13.6h-31.7v17h27.5v12.6h-27.5v30.4h-14.4v-73.5h46.1z" />
	<path class="st0" d="m719.9 648.6c-5 4.8-11.8 7.2-20.6 7.2-8.9 0-15.8-2.4-20.6-7.2-4.9-4.8-7.3-12.2-7.3-22.2v-45.7h14.4v45.7c0 2 0.2 3.9 0.5 5.9 0.3 1.9 0.9 3.6 1.9 5.1s2.3 2.7 4.1 3.6c1.7 0.9 4.1 1.4 7 1.4 5.1 0 8.7-1.3 10.7-3.9s2.9-6.6 2.9-12.1v-45.7h14.4v45.7c0.1 10-2.4 17.3-7.4 22.2z" />
	<path class="st0" d="M784.5,580.7v59.9h32v13.6H770v-73.5H784.5z" />
	<path class="st1" d="m600.6 409.8c-1.5-6.1-1.3-10.3-2.7-10.3-0.7 0-0.9 0.3-1 0.5-4.4 6.3-8 11.5-20 11.5-11.8 0-21.1-6.3-21.1-18.4 0-14.4 19.2-20.4 30.7-25.7 9.7-4.5 12.1-4.8 12.1-15.6 0-8.3-3.2-14.6-13.3-14.6-16.2 0-9.5 15.9-20.6 15.9-3.8 0-6.3-1.8-6.3-5.8 0-11.3 17.2-15.1 30.4-15.1 12.1 0 22.5 2.7 22.5 13.4v36.4c0 9.8-0.5 19.9 4.8 26.7l-15.5 1.1m-17.4-7.6c10.2 0 15.4-9 15.4-18.4v-16.7l-9.2 4.5c-12.6 6.1-19.3 9.4-19.3 18.9-0.1 7.9 5.4 11.7 13.1 11.7" />
	<path class="st1" d="m645.5 390.8v-49.6c7.8-1 15.4-3.2 18.7-8.3-6 0.5-12.3 0.8-18.7 1v-23.3l-12 3.1-0.7 20.4h-8v7.9h8v51.4c0 10.1 4.1 17.3 15.3 17.3 6.5 0 14.5-5 14.7-6.5l0.7-7.1c-1.9 1.8-7.3 4-10.4 4-6.7-0.2-7.6-4.9-7.6-10.3" />
	<path class="st1" d="m418.7 320.2c-11.6-9.1-21.3-12.4-34.5-12.4-26.4 0-40.9 21.7-40.9 45.9 0 30.6 14.2 50.6 47.1 50.6 4.4 0 8.3-0.5 12.6-1.2 1.7-5.6 1.7-11.4 1.7-17.1v-8.1c0-5.4-0.1-11.5-1.4-16.5-0.9-3.1-3.9-3.1-8.1-5.2h24.8v38.3c0 4.3 0.5 10.3 1.2 14.4-10.4 1.7-24.4 2.7-36.3 2.7-36 0-59.4-15.4-59.4-52.7 0-40.1 29.2-58.3 67.4-58.3 8.5 0 17.1 1.2 25.8 1.8v17.8" />
	<path class="st1" d="m441.4 361.4c0-11.8 0-23.2-4.4-26.7 6.3-0.1 12.3-0.8 14.3-0.8 3.1 0 1.2 8.3 3.1 8.3 0.9 0 6.5-10 16.5-10 6 0 9.4 2.3 9.4 6.3 0 3.2-1.7 5.5-6 5.5-3.3 0-6.7-0.5-10.7-0.5-8.5 0-9.6 5.8-9.6 13.1v34.1c0 6.1 0 13.2 3.1 18h-18.8c3-4.8 3-11.9 3-18v-29.3" />
	<path class="st1" d="m498.6 361.1c-0.3 3.2-0.7 5.8-0.7 9.3 0 15.4 7.2 30.2 24.9 30.2 8.3 0 16.5-3.3 20.6-7.8v1.8c0 8.8-14.3 16.9-26.9 16.9-22.3 0-32.9-19.6-32.9-39.6 0-21.6 12.3-39.6 35.7-39.6 16.4 0 26.1 10.4 26.1 21.2 0 7.6-5.6 7.6-16.2 7.6h-30.6m18.9-5c8.3 0 12.8 0 12.8-6.3 0-6.1-4.6-12.6-13-12.6-10.8 0-15.3 10.1-17.4 18.9h17.6z" />
	<path class="st1" d="m555.5 513.8v-49.6c7.8-1 15.4-3.2 18.7-8.3-6 0.5-12.3 0.8-18.7 1v-23.4l-11.9 3.1-0.7 20.4h-8v8h8v51.4c0 10.1 4.1 17.2 15.4 17.2 6.5 0 14.5-5 14.7-6.5l0.7-7.1c-1.9 1.8-7.3 4-10.4 4-6.9-0.1-7.8-4.8-7.8-10.2" />
	<path class="st1" d="m344.3 524.2h20.4c10.6 0 21.5-2.5 29.5-9.5l-3.1 15.3c-4.6 0.3-10.2 0.8-16.4 0.8h-49.7c3.8-5.6 4.3-14.3 4.3-21.7v-62.3c0-7.5 0-16.1-3.7-21.7h59.9l0.7 12.8c-6-5-15.2-6.1-25.3-6.1h-16.7v39.6c13.1 0 27.8 0 40.9-1.2-6 9.5-26.1 9.5-36.7 9.5h-4.3v44.5" />
	<path class="st1" d="m447.9 531.8c-1.5-6.1-1.4-10.3-2.7-10.3-0.7 0-0.9 0.3-1 0.5-4.4 6.3-8 11.4-20 11.4-11.8 0-21.1-6.3-21.1-18.4 0-14.4 19.3-20.4 30.7-25.7 9.7-4.5 12.1-4.8 12.1-15.6 0-8.3-3.2-14.6-13.3-14.6-16.2 0-9.5 15.9-20.6 15.9-3.8 0-6.3-1.8-6.3-5.8 0-11.3 17.2-15.1 30.4-15.1 12.1 0 22.5 2.7 22.5 13.4v36.5c0 9.8-0.5 19.9 4.8 26.7l-15.5 1.1m-17.4-7.6c10.2 0 15.4-9 15.4-18.4v-16.7l-9.2 4.5c-12.6 6.1-19.3 9.4-19.3 18.9 0 7.9 5.5 11.7 13.1 11.7" />
	<path class="st1" d="m525.3 509.8c0 15.7-15.7 23.7-30.2 23.7-6.8 0-12.6-1.3-19-3.7-1.9-0.6-2.9-1.3-2.9-3.7 0-4 0.7-7.9 0.8-12.1 5.3 8.3 9.5 13.4 20.8 13.4 10 0 16-4.6 16-14.1 0-20.2-33.8-16.9-33.8-41.4 0-12.4 9.9-17.8 25.9-17.8 5.1 0 10.4 0.8 15.5 2 0.5 0.2 2.2 0.5 2.2 1.5 0 3-0.2 7.8-0.3 11.3-6.7-8.1-10.1-9.8-17.9-9.8-6.7 0-12.8 3-12.8 10.1 0.2 19.9 35.7 17.5 35.7 40.6" />
	<path class="st1" d="m596.8 483.1c-0.3 3.1-0.7 5.8-0.7 9.3 0 15.4 7.2 30.1 24.9 30.1 8.4 0 16.6-3.3 20.6-7.8v1.8c0 8.8-14.3 16.9-26.9 16.9-22.3 0-32.9-19.6-32.9-39.6 0-21.5 12.3-39.6 35.6-39.6 16.4 0 26.1 10.5 26.1 21.2 0 7.6-5.6 7.6-16.2 7.6h-30.5m18.6-4.9c8.4 0 12.8 0 12.8-6.3 0-6.1-4.6-12.6-13-12.6-10.8 0-15.4 10.1-17.4 18.9h17.6z" />
	<path class="st1" d="m659.7 483.4c0-11.8 0-23.2-4.4-26.7 6.3-0.2 12.3-0.8 14.3-0.8 3.1 0 1.2 8.3 3.1 8.3 0.9 0 6.5-10 16.5-10 6 0 9.4 2.3 9.4 6.3 0 3.2-1.7 5.5-6 5.5-3.3 0-6.7-0.5-10.7-0.5-8.5 0-9.6 5.8-9.6 13.1v34.1c0 6.1 0 13.3 3 18.1h-18.7c3-4.8 3-11.9 3-18.1v-29.3" />
	<path class="st1" d="m723.1 455.9v5.8c0 1.3-0.2 2.6 1 2.6 1.5 0 9-10.1 22.3-10.1 12.8 0 20.8 6.1 20.8 21.6v37.1c0 6.2 0 13.3 2.7 17.9h-15.3v-45.4c0-10.6-1.5-22.2-15.2-22.2-13.5 0-16 11.8-16 23v26.7c0 6.2 0 13.3 3.1 17.9h-18.8c3.1-4.7 3.1-11.8 3.1-17.9v-39.4c0-6.8 0-13.2-3.6-16.6l15.9-1" />
	<path class="st1" d="m600.6 409.8c-1.5-6.1-1.3-10.3-2.7-10.3-0.7 0-0.9 0.3-1 0.5-4.4 6.3-8 11.5-20 11.5-11.8 0-21.1-6.3-21.1-18.4 0-14.4 19.2-20.4 30.7-25.7 9.7-4.5 12.1-4.8 12.1-15.6 0-8.3-3.2-14.6-13.3-14.6-16.2 0-9.5 15.9-20.6 15.9-3.8 0-6.3-1.8-6.3-5.8 0-11.3 17.2-15.1 30.4-15.1 12.1 0 22.5 2.7 22.5 13.4v36.4c0 9.8-0.5 19.9 4.8 26.7l-15.5 1.1m-17.4-7.6c10.2 0 15.4-9 15.4-18.4v-16.7l-9.2 4.5c-12.6 6.1-19.3 9.4-19.3 18.9-0.1 7.9 5.4 11.7 13.1 11.7" />
	<path class="st1" d="m645.5 390.8v-49.6c7.8-1 15.4-3.2 18.7-8.3-6 0.5-12.3 0.8-18.7 1v-23.3l-12 3.1-0.7 20.4h-8v7.9h8v51.4c0 10.1 4.1 17.3 15.3 17.3 6.5 0 14.5-5 14.7-6.5l0.7-7.1c-1.9 1.8-7.3 4-10.4 4-6.7-0.2-7.6-4.9-7.6-10.3" />
	<path class="st1" d="m418.7 320.2c-11.6-9.1-21.3-12.4-34.5-12.4-26.4 0-40.9 21.7-40.9 45.9 0 30.6 14.2 50.6 47.1 50.6 4.4 0 8.3-0.5 12.6-1.2 1.7-5.6 1.7-11.4 1.7-17.1v-8.1c0-5.4-0.1-11.5-1.4-16.5-0.9-3.1-3.9-3.1-8.1-5.2h24.8v38.3c0 4.3 0.5 10.3 1.2 14.4-10.4 1.7-24.4 2.7-36.3 2.7-36 0-59.4-15.4-59.4-52.7 0-40.1 29.2-58.3 67.4-58.3 8.5 0 17.1 1.2 25.8 1.8v17.8" />
	<path class="st1" d="m441.4 361.4c0-11.8 0-23.2-4.4-26.7 6.3-0.1 12.3-0.8 14.3-0.8 3.1 0 1.2 8.3 3.1 8.3 0.9 0 6.5-10 16.5-10 6 0 9.4 2.3 9.4 6.3 0 3.2-1.7 5.5-6 5.5-3.3 0-6.7-0.5-10.7-0.5-8.5 0-9.6 5.8-9.6 13.1v34.1c0 6.1 0 13.2 3.1 18h-18.8c3-4.8 3-11.9 3-18v-29.3" />
	<path class="st1" d="m498.6 361.1c-0.3 3.2-0.7 5.8-0.7 9.3 0 15.4 7.2 30.2 24.9 30.2 8.3 0 16.5-3.3 20.6-7.8v1.8c0 8.8-14.3 16.9-26.9 16.9-22.3 0-32.9-19.6-32.9-39.6 0-21.6 12.3-39.6 35.7-39.6 16.4 0 26.1 10.4 26.1 21.2 0 7.6-5.6 7.6-16.2 7.6h-30.6m18.9-5c8.3 0 12.8 0 12.8-6.3 0-6.1-4.6-12.6-13-12.6-10.8 0-15.3 10.1-17.4 18.9h17.6z" />
	<path class="st1" d="m555.5 513.8v-49.6c7.8-1 15.4-3.2 18.7-8.3-6 0.5-12.3 0.8-18.7 1v-23.4l-11.9 3.1-0.7 20.4h-8v8h8v51.4c0 10.1 4.1 17.2 15.4 17.2 6.5 0 14.5-5 14.7-6.5l0.7-7.1c-1.9 1.8-7.3 4-10.4 4-6.9-0.1-7.8-4.8-7.8-10.2" />
	<path class="st1" d="m344.3 524.2h20.4c10.6 0 21.5-2.5 29.5-9.5l-3.1 15.3c-4.6 0.3-10.2 0.8-16.4 0.8h-49.7c3.8-5.6 4.3-14.3 4.3-21.7v-62.3c0-7.5 0-16.1-3.7-21.7h59.9l0.7 12.8c-6-5-15.2-6.1-25.3-6.1h-16.7v39.6c13.1 0 27.8 0 40.9-1.2-6 9.5-26.1 9.5-36.7 9.5h-4.3v44.5" />
	<path class="st1" d="m447.9 531.8c-1.5-6.1-1.4-10.3-2.7-10.3-0.7 0-0.9 0.3-1 0.5-4.4 6.3-8 11.4-20 11.4-11.8 0-21.1-6.3-21.1-18.4 0-14.4 19.3-20.4 30.7-25.7 9.7-4.5 12.1-4.8 12.1-15.6 0-8.3-3.2-14.6-13.3-14.6-16.2 0-9.5 15.9-20.6 15.9-3.8 0-6.3-1.8-6.3-5.8 0-11.3 17.2-15.1 30.4-15.1 12.1 0 22.5 2.7 22.5 13.4v36.5c0 9.8-0.5 19.9 4.8 26.7l-15.5 1.1m-17.4-7.6c10.2 0 15.4-9 15.4-18.4v-16.7l-9.2 4.5c-12.6 6.1-19.3 9.4-19.3 18.9 0 7.9 5.5 11.7 13.1 11.7" />
	<path class="st1" d="m525.3 509.8c0 15.7-15.7 23.7-30.2 23.7-6.8 0-12.6-1.3-19-3.7-1.9-0.6-2.9-1.3-2.9-3.7 0-4 0.7-7.9 0.8-12.1 5.3 8.3 9.5 13.4 20.8 13.4 10 0 16-4.6 16-14.1 0-20.2-33.8-16.9-33.8-41.4 0-12.4 9.9-17.8 25.9-17.8 5.1 0 10.4 0.8 15.5 2 0.5 0.2 2.2 0.5 2.2 1.5 0 3-0.2 7.8-0.3 11.3-6.7-8.1-10.1-9.8-17.9-9.8-6.7 0-12.8 3-12.8 10.1 0.2 19.9 35.7 17.5 35.7 40.6" />
	<path class="st1" d="m596.8 483.1c-0.3 3.1-0.7 5.8-0.7 9.3 0 15.4 7.2 30.1 24.9 30.1 8.4 0 16.6-3.3 20.6-7.8v1.8c0 8.8-14.3 16.9-26.9 16.9-22.3 0-32.9-19.6-32.9-39.6 0-21.5 12.3-39.6 35.6-39.6 16.4 0 26.1 10.5 26.1 21.2 0 7.6-5.6 7.6-16.2 7.6h-30.5m18.6-4.9c8.4 0 12.8 0 12.8-6.3 0-6.1-4.6-12.6-13-12.6-10.8 0-15.4 10.1-17.4 18.9h17.6z" />
	<path class="st1" d="m659.7 483.4c0-11.8 0-23.2-4.4-26.7 6.3-0.2 12.3-0.8 14.3-0.8 3.1 0 1.2 8.3 3.1 8.3 0.9 0 6.5-10 16.5-10 6 0 9.4 2.3 9.4 6.3 0 3.2-1.7 5.5-6 5.5-3.3 0-6.7-0.5-10.7-0.5-8.5 0-9.6 5.8-9.6 13.1v34.1c0 6.1 0 13.3 3 18.1h-18.7c3-4.8 3-11.9 3-18.1v-29.3" />
	<path class="st1" d="m723.1 455.9v5.8c0 1.3-0.2 2.6 1 2.6 1.5 0 9-10.1 22.3-10.1 12.8 0 20.8 6.1 20.8 21.6v37.1c0 6.2 0 13.3 2.7 17.9h-15.3v-45.4c0-10.6-1.5-22.2-15.2-22.2-13.5 0-16 11.8-16 23v26.7c0 6.2 0 13.3 3.1 17.9h-18.8c3.1-4.7 3.1-11.8 3.1-17.9v-39.4c0-6.8 0-13.2-3.6-16.6l15.9-1" />
	<path class="st2" d="m865.1 517.7c-3.1-20.5-7.6-40.4-13.6-59.6-15.2-50.9-33.4-78.5-33.4-78.5l-0.2 0.1c-59.6-106-164.8-176.9-284.7-176.9-118.6 0-222.8 68.2-282.7 171.4 57.7-98.6 155.2-163.5 265.7-163.5 117 0 219.3 72.6 275.3 181l-0.1 0.1c1.5 2.8 2.9 5.5 4.3 8.3 11.3 23.3 20.5 48.1 27.4 74.2 8.2 32.3 12 63.6 13.4 90.8 0.1 2.3 0.2 4.6 0.2 7h0.1c1.8 44.2-2.5 76.4-3.4 82.2h35.9c4.9-52.4 2.1-98.2-4.2-136.6z" />
	<path class="st0" d="m900.3 530.5c-2.6-23.4-7.2-46.2-13.7-68.1-15.1-53.9-36.1-88.2-47.8-104.5-63.8-98.3-169.3-163-288.6-163-126.6 0-237.5 71.7-299.7 179.3 59.9-103.1 164.1-171.4 282.7-171.4 120.1 0 225.6 71.2 285.1 177.5l-0.1 0.2c62 107.4 52.1 260.4 51.1 273.7h33.2c3.8-46.8 2.4-88-2.2-123.7z" />
	<path class="st3" d="m932.8 520.1c-3.4-26.9-9.5-52.8-17.9-77.7-18.9-57.7-43.8-91.1-51.8-100.8-67.1-93.8-174.6-154.6-295.8-154.6-134.6 0-252.3 75.1-316.7 187.2 62.2-107.6 173.1-179.3 299.7-179.3 146.4 0 272 97.4 325.3 234.8 16.6 44.8 24 89.6 26.9 127.5 0.2 5 0.4 10 0.4 15h0.5c2 42.9-1.5 74.4-2.5 82.2h34.1c5-51.1 3.3-95.8-2.2-134.3z" />
</svg>
